<svg width="17" height="21" viewBox="0 0 17 21" fill="none" xmlns="http://www.w3.org/2000/svg">
<path fill-rule="evenodd" clip-rule="evenodd" d="M16.1666 8.77508C16.1666 4.00258 12.525 0.916748 8.49998 0.916748C4.47498 0.916748 0.833313 4.00258 0.833313 8.77508C0.833313 11.9567 3.39206 15.723 8.49998 20.0834C13.6079 15.723 16.1666 11.9567 16.1666 8.77508ZM14.25 8.77508C14.25 5.29633 11.7104 2.83341 8.49998 2.83341C5.28956 2.83341 2.74998 5.29633 2.74998 8.77508C2.74998 11.0176 4.61873 13.9884 8.49998 17.5342C12.3812 13.9884 14.25 11.0176 14.25 8.77508ZM8.49998 10.5001C7.44581 10.5001 6.58331 9.63758 6.58331 8.58341C6.58331 7.52925 7.44581 6.66675 8.49998 6.66675C9.55415 6.66675 10.4166 7.52925 10.4166 8.58341C10.4166 9.63758 9.55415 10.5001 8.49998 10.5001Z" fill="#1B1D21"/>
</svg>
