<svg width="40" height="40" viewBox="0 0 40 40" fill="none" xmlns="http://www.w3.org/2000/svg">
<g clip-path="url(#clip0_0_25)">
<rect x="0.5" y="0.5" width="39" height="39" rx="19.5" stroke="#1B1D21"/>
<path fill-rule="evenodd" clip-rule="evenodd" d="M24 15.4705C24 17.4037 22.4332 18.9704 20.5 18.9704C18.5668 18.9704 17 17.4037 17 15.4705C17 13.5372 18.5668 11.9705 20.5 11.9705C22.4332 11.9705 24 13.5372 24 15.4705ZM26.625 24.6579C26.625 25.3825 26.0371 25.9704 25.3125 25.9704H15.6875C14.9629 25.9704 14.375 25.3825 14.375 24.6579V23.5204C14.375 21.4915 16.0211 19.8454 18.05 19.8454H18.5066C19.1164 20.1244 19.789 20.2829 20.5 20.2829C21.2109 20.2829 21.8863 20.1244 22.4934 19.8454H22.95C24.9789 19.8454 26.625 21.4915 26.625 23.5204V24.6579Z" fill="#1B1D21"/>
</g>
<defs>
<clipPath id="clip0_0_25">
<rect width="40" height="40" fill="white"/>
</clipPath>
</defs>
</svg>
