<svg width="40" height="40" viewBox="0 0 40 40" fill="none" xmlns="http://www.w3.org/2000/svg">
<g clip-path="url(#clip0_0_18)">
<rect x="0.5" y="0.5" width="39" height="39" rx="19.5" stroke="#1B1D21"/>
<path fill-rule="evenodd" clip-rule="evenodd" d="M26.125 24.5625C26.125 25.7706 25.1456 26.75 23.9375 26.75H16.0625C14.8544 26.75 13.875 25.7706 13.875 24.5625V17.125H16.5V16.25C16.5 14.3201 18.0701 12.75 20 12.75C21.9299 12.75 23.5 14.3201 23.5 16.25V17.125H26.125V24.5625ZM18.25 16.25V17.125H21.75V16.25C21.75 15.285 20.9649 14.5 20 14.5C19.035 14.5 18.25 15.285 18.25 16.25ZM22.625 19.5312C22.2625 19.5312 21.9687 19.2374 21.9687 18.875C21.9687 18.5125 22.2625 18.2187 22.625 18.2187C22.9874 18.2187 23.2812 18.5125 23.2812 18.875C23.2812 19.2374 22.9874 19.5312 22.625 19.5312ZM16.7187 18.875C16.7187 19.2374 17.0126 19.5312 17.375 19.5312C17.7374 19.5312 18.0312 19.2374 18.0312 18.875C18.0312 18.5125 17.7374 18.2187 17.375 18.2187C17.0126 18.2187 16.7187 18.5125 16.7187 18.875Z" fill="#1B1D21"/>
</g>
<defs>
<clipPath id="clip0_0_18">
<rect width="40" height="40" fill="white"/>
</clipPath>
</defs>
</svg>
