<svg width="32" height="32" viewBox="0 0 32 32" fill="none" xmlns="http://www.w3.org/2000/svg">
<path fill-rule="evenodd" clip-rule="evenodd" d="M16 0.166656C7.24419 0.166656 0.166687 7.24416 0.166687 16C0.166687 24.7558 7.24419 31.8333 16 31.8333C24.7559 31.8333 31.8334 24.7558 31.8334 16C31.8334 7.24416 24.7559 0.166656 16 0.166656ZM20.1009 9.66666L16 13.7675L11.8992 9.66666L9.66669 11.8992L13.7675 16L9.66669 20.1008L11.8992 22.3333L16 18.2325L20.1009 22.3333L22.3334 20.1008L18.2325 16L22.3334 11.8992L20.1009 9.66666ZM3.33335 16C3.33335 22.9825 9.01752 28.6667 16 28.6667C22.9825 28.6667 28.6667 22.9825 28.6667 16C28.6667 9.01749 22.9825 3.33332 16 3.33332C9.01752 3.33332 3.33335 9.01749 3.33335 16Z" fill="#007E5B"/>
</svg>
