<svg width="32" height="30" viewBox="0 0 32 30" fill="none" xmlns="http://www.w3.org/2000/svg">
<path fill-rule="evenodd" clip-rule="evenodd" d="M3.33335 0.75H28.6667C30.4242 0.75 31.8334 2.15917 31.8334 3.91667V8.66667C31.8334 10.4242 30.4242 11.8333 28.6667 11.8333H25.5V16.5833C25.5 20.0825 22.6659 22.9167 19.1667 22.9167H9.66669C6.16752 22.9167 3.33335 20.0825 3.33335 16.5833V0.75ZM22.3334 16.5833V3.91667H6.50002V16.5833C6.50002 18.325 7.92502 19.75 9.66669 19.75H19.1667C20.9084 19.75 22.3334 18.325 22.3334 16.5833ZM25.5 8.66667V3.91667H28.6667V8.66667H25.5ZM0.166687 26.0833H28.6667V29.25H0.166687V26.0833Z" fill="#007E5B"/>
</svg>
