<svg width="36" height="26" viewBox="0 0 36 26" fill="none" xmlns="http://www.w3.org/2000/svg">
<path fill-rule="evenodd" clip-rule="evenodd" d="M30.6667 6.66665H25.9167V0.333313H3.75C2.00833 0.333313 0.583333 1.75831 0.583333 3.49998V20.9166H3.75C3.75 23.545 5.87167 25.6666 8.5 25.6666C11.1283 25.6666 13.25 23.545 13.25 20.9166H22.75C22.75 23.545 24.8717 25.6666 27.5 25.6666C30.1283 25.6666 32.25 23.545 32.25 20.9166H35.4167V13L30.6667 6.66665ZM29.875 9.04165L32.9783 13H25.9167V9.04165H29.875ZM6.91667 20.9166C6.91667 21.7875 7.62917 22.5 8.5 22.5C9.37083 22.5 10.0833 21.7875 10.0833 20.9166C10.0833 20.0458 9.37083 19.3333 8.5 19.3333C7.62917 19.3333 6.91667 20.0458 6.91667 20.9166ZM12.015 17.75C11.1442 16.7841 9.90917 16.1666 8.5 16.1666C7.09083 16.1666 5.85583 16.7841 4.985 17.75H3.75V3.49998H22.75V17.75H12.015ZM25.9167 20.9166C25.9167 21.7875 26.6292 22.5 27.5 22.5C28.3708 22.5 29.0833 21.7875 29.0833 20.9166C29.0833 20.0458 28.3708 19.3333 27.5 19.3333C26.6292 19.3333 25.9167 20.0458 25.9167 20.9166Z" fill="#007E5B"/>
</svg>
