<svg width="32" height="32" viewBox="0 0 32 32" fill="none" xmlns="http://www.w3.org/2000/svg">
<path fill-rule="evenodd" clip-rule="evenodd" d="M16.095 0.166656C19.4517 3.52332 21.2408 7.82999 21.5258 12.2475C19.4992 13.34 17.6308 14.7333 16 16.4117C14.3692 14.7175 12.5008 13.3242 10.4742 12.2475C10.8383 7.86166 12.7067 3.55499 16.095 0.166656ZM18.1375 10.5692C17.7733 8.66916 17.0767 6.84832 16.0792 5.21749C15.0342 6.86416 14.3058 8.68499 13.91 10.585C14.6383 11.06 15.3508 11.5825 16.0158 12.1208C16.6967 11.5667 17.3933 11.0442 18.1375 10.5692ZM16 21.4625C14.7017 19.4833 13.055 17.7575 11.155 16.3958C11.0686 16.336 10.9795 16.2818 10.8899 16.2273L10.8899 16.2273C10.7659 16.1519 10.6411 16.0761 10.5217 15.9842C10.6381 16.0648 10.7597 16.1404 10.8777 16.2137L10.8778 16.2138L10.8778 16.2138C10.9683 16.2701 11.0567 16.325 11.1392 16.38C8.05167 14.1475 4.2675 12.8333 0.166667 12.8333C0.166667 21.2567 5.48667 28.3817 12.8808 31.0258C13.8783 31.39 14.9233 31.6592 16 31.8333C17.0767 31.6433 18.1058 31.3742 19.1192 31.0258C26.5133 28.3817 31.8333 21.2567 31.8333 12.8333C25.215 12.8333 19.4042 16.2692 16 21.4625ZM15.9842 28.6192C16.6967 28.4608 17.3933 28.2708 18.09 28.0333C23.2675 26.1808 27.0675 21.7317 28.255 16.3958C26.45 16.8233 24.7242 17.5833 23.1725 18.6125L23.1883 18.6442L23.1883 18.6442C23.0458 18.7392 22.9033 18.8342 22.7608 18.9133L22.65 18.9925C21.0983 20.1167 19.7367 21.5417 18.6442 23.2042L16 27.2417L13.3558 23.1883C12.295 21.5417 10.9492 20.1325 9.38167 18.9925L9.27083 18.9292C9.065 18.8183 8.85917 18.6758 8.65333 18.5333L8.685 18.5175C7.14917 17.5358 5.48667 16.8233 3.745 16.4117C4.9325 21.7317 8.74833 26.1808 13.9575 28.0492C14.6067 28.2867 15.2875 28.4767 15.9842 28.6192Z" fill="#007E5B"/>
</svg>
